HIERARCHY
ROOT Hips
{
	OFFSET 0.000000 0.000000 0.000000
	CHANNELS 6 Xposition Yposition Zposition Xrotation Yrotation Zrotation
	JOINT LeftUpLeg_virtual
	{
		OFFSET 0.000000 0.000000 0.000000
		CHANNELS 3 Xrotation Yrotation Zrotation
		JOINT LeftUpLeg
		{
			OFFSET 13.026900 -6.336304 -1.092800
			CHANNELS 3 Xrotation Yrotation Zrotation
			JOINT LeftLeg
			{
				OFFSET 0.524474 -46.096886 9.782700
				CHANNELS 3 Xrotation Yrotation Zrotation
				JOINT LeftFoot
				{
					OFFSET -0.524474 -53.427422 -12.948200
					CHANNELS 3 Xrotation Yrotation Zrotation
					JOINT LeftToeBase
					{
						OFFSET 0.192200 -14.009700 16.364100
						CHANNELS 3 Xrotation Yrotation Zrotation
						JOINT LeftToe_End
						{
							OFFSET -1.784700 -0.561700 9.474800
							CHANNELS 3 Xrotation Yrotation Zrotation
							End Site
							{
								OFFSET 0 0 0
							}
						}
					}
				}
			}
		}
	}
	JOINT RightUpLeg_virtual
	{
		OFFSET 0.000000 0.000000 0.000000
		CHANNELS 3 Xrotation Yrotation Zrotation
		JOINT RightUpLeg
		{
			OFFSET -12.883000 -6.336304 -1.092800
			CHANNELS 3 Xrotation Yrotation Zrotation
			JOINT RightLeg
			{
				OFFSET -0.524587 -46.096825 9.782800
				CHANNELS 3 Xrotation Yrotation Zrotation
				JOINT RightFoot
				{
					OFFSET 0.524587 -53.427383 -12.948300
					CHANNELS 3 Xrotation Yrotation Zrotation
					JOINT RightToeBase
					{
						OFFSET -0.192200 -14.009700 16.364100
						CHANNELS 3 Xrotation Yrotation Zrotation
						JOINT RightToe_End
						{
							OFFSET 1.784700 -0.561700 9.474800
							CHANNELS 3 Xrotation Yrotation Zrotation
							End Site
							{
								OFFSET 0 0 0
							}
						}
					}
				}
			}
		}
	}
	JOINT Spine_virtual
	{
		OFFSET 0.000000 0.000000 0.000000
		CHANNELS 3 Xrotation Yrotation Zrotation
		JOINT Spine
		{
			OFFSET 0.072000 7.257294 -0.789700
			CHANNELS 3 Xrotation Yrotation Zrotation
			JOINT Spine1
			{
				OFFSET 0.000000 12.508769 -0.658067
				CHANNELS 3 Xrotation Yrotation Zrotation
				JOINT Spine1_split
				{
					OFFSET 0.000000 12.508769 -0.658067
					CHANNELS 3 Xrotation Yrotation Zrotation
					JOINT Spine2
					{
						OFFSET 0.000000 12.508769 -0.658067
						CHANNELS 3 Xrotation Yrotation Zrotation
						JOINT Neck_virtual
						{
							OFFSET 0.000000 0.000000 0.000000
							CHANNELS 3 Xrotation Yrotation Zrotation
							JOINT Neck
							{
								OFFSET 0.000000 14.033295 7.520400
								CHANNELS 3 Xrotation Yrotation Zrotation
								JOINT Head
								{
									OFFSET 0.000000 8.198502 5.703100
									CHANNELS 3 Xrotation Yrotation Zrotation
									JOINT HeadTop_End
									{
										OFFSET 0.000000 17.760803 13.332701
										CHANNELS 3 Xrotation Yrotation Zrotation
										End Site
										{
											OFFSET 0 0 0
										}
									}
								}
							}
						}
						JOINT LeftShoulder_virtual
						{
							OFFSET 0.000000 0.000000 0.000000
							CHANNELS 3 Xrotation Yrotation Zrotation
							JOINT LeftShoulder
							{
								OFFSET 6.292450 5.785301 -0.669000
								CHANNELS 3 Xrotation Yrotation Zrotation
								JOINT LeftShoulder_split
								{
									OFFSET 6.292450 5.785301 -0.669000
									CHANNELS 3 Xrotation Yrotation Zrotation
									JOINT LeftArm
									{
										OFFSET 13.907140 -6.093903 1.965100
										CHANNELS 3 Xrotation Yrotation Zrotation
										JOINT LeftForeArm
										{
											OFFSET 34.140198 0.000000 0.000000
											CHANNELS 3 Xrotation Yrotation Zrotation
											JOINT LeftHand
											{
												OFFSET 40.960209 0.000000 0.000000
												CHANNELS 3 Xrotation Yrotation Zrotation
												End Site
												{
													OFFSET 0 0 0
												}
											}
										}
									}
								}
							}
						}
						JOINT RightShoulder_virtual
						{
							OFFSET 0.000000 0.000000 0.000000
							CHANNELS 3 Xrotation Yrotation Zrotation
							JOINT RightShoulder
							{
								OFFSET -6.292450 5.785301 -0.669000
								CHANNELS 3 Xrotation Yrotation Zrotation
								JOINT RightShoulder_split
								{
									OFFSET -6.292450 5.785301 -0.669000
									CHANNELS 3 Xrotation Yrotation Zrotation
									JOINT RightArm
									{
										OFFSET -13.907140 -6.093903 1.965100
										CHANNELS 3 Xrotation Yrotation Zrotation
										JOINT RightForeArm
										{
											OFFSET -34.140198 0.000000 0.000000
											CHANNELS 3 Xrotation Yrotation Zrotation
											JOINT RightHand
											{
												OFFSET -40.960209 0.000000 0.000000
												CHANNELS 3 Xrotation Yrotation Zrotation
												End Site
												{
													OFFSET 0 0 0
												}
											}
										}
									}
								}
							}
						}
					}
				}
			}
		}
	}
}
MOTION
Frames: 6
Frame Time: 0.03333333
-0.809663 105.858505 53.184532 0.000000 0.000000 0.000000 9.739951 -5.401246 0.115975 -34.835949 4.298923 16.748513 41.148044 8.119320 0.277133 -14.424873 -3.039929 -14.729352 -0.109843 -0.000005 -0.000002 0.000000 0.000000 0.000000 9.739951 -5.401246 0.115975 -39.257192 -2.219492 -5.590131 42.083483 1.336966 -4.341798 -11.339295 -11.755185 9.363412 1.051145 0.000004 0.000003 0.000000 0.000000 0.000000 9.739951 -5.401246 0.115975 5.627564 0.086015 -1.334282 2.821242 -0.553559 -0.076054 0.000000 0.000000 0.000000 0.000000 0.000000 0.000000 1.233432 -0.970668 0.984312 12.744450 -0.360745 2.014636 -31.319720 0.726275 -5.428397 0.000000 0.000000 0.000000 1.233432 -0.970668 0.984312 5.913655 -7.807891 19.928511 0.000000 0.000000 0.000000 -34.306193 -17.647675 -14.146170 179.999978 -55.705650 179.999978 0.000000 0.000000 0.000000 1.233432 -0.970668 0.984312 -1.553030 -8.369795 -14.911053 0.000000 0.000000 0.000000 -30.430009 36.040258 26.479117 179.999978 58.847469 -179.999964 0.000000 0.000000 0.000000 
-0.969114 108.548218 54.224834 0.000000 0.000000 0.000000 10.279816 -5.128854 0.214694 -31.713023 5.400444 16.097644 35.335547 8.181284 0.286823 -12.494737 -3.307708 -14.279240 -0.109844 0.000003 0.000000 0.000000 0.000000 0.000000 10.279816 -5.128854 0.214694 -35.936245 -2.554615 -5.478396 36.617273 1.041316 -4.290914 -9.735019 -11.612572 9.376165 1.031099 -0.000019 0.000002 0.000000 0.000000 0.000000 10.279816 -5.128854 0.214694 5.320117 0.068083 -1.351540 2.188026 -0.566218 -0.158979 0.000000 0.000000 0.000000 0.000000 0.000000 0.000000 0.272736 -0.972617 0.898067 12.585921 -0.308786 2.188554 -30.323014 0.842207 -5.312840 0.000000 0.000000 0.000000 0.272736 -0.972617 0.898067 5.876924 -7.979694 20.002224 0.000000 0.000000 0.000000 -34.254673 -16.965592 -14.997632 179.999978 -55.552497 179.999978 0.000000 0.000000 0.000000 0.272736 -0.972617 0.898067 -1.569645 -8.377661 -14.965267 0.000000 0.000000 0.000000 -29.516130 36.059929 26.253343 180.000005 58.643635 -179.999991 0.000000 0.000000 0.000000 
-1.132394 110.964386 55.101223 0.000000 0.000000 0.000000 10.794859 -4.757587 0.255140 -28.782561 6.359000 15.485137 29.619556 8.225238 0.288380 -10.433838 -3.674550 -13.851502 -0.109851 -0.000003 0.000001 0.000000 0.000000 0.000000 10.794859 -4.757587 0.255140 -32.795047 -2.845332 -5.327663 31.256622 0.614338 -4.239063 -8.016239 -11.465097 9.399067 1.011058 -0.000004 -0.000001 0.000000 0.000000 0.000000 10.794859 -4.757587 0.255140 5.077885 0.054339 -1.351192 1.666093 -0.571977 -0.208916 0.000000 0.000000 0.000000 0.000000 0.000000 0.000000 -0.559325 -0.968293 0.843850 12.301279 -0.295254 2.357713 -29.149553 0.800225 -5.276034 0.000000 0.000000 0.000000 -0.559325 -0.968293 0.843850 5.878845 -8.060532 20.101148 0.000000 0.000000 0.000000 -33.982213 -16.856637 -15.686667 179.999978 -55.612404 179.999978 0.000000 0.000000 0.000000 -0.559325 -0.968293 0.843850 -1.587336 -8.450120 -14.986752 0.000000 0.000000 0.000000 -28.633705 36.187742 26.024556 179.999978 58.852803 -179.999964 0.000000 0.000000 0.000000 
-1.277374 112.887405 55.742702 0.000000 0.000000 0.000000 11.064796 -4.386284 0.300218 -26.129174 7.167489 14.922036 24.612597 8.242181 0.279413 -8.522077 -4.053809 -13.483336 -0.109845 -0.000002 0.000001 0.000000 0.000000 0.000000 11.064796 -4.386284 0.300218 -30.021188 -3.093956 -5.235456 26.653488 0.227778 -4.187758 -6.450633 -11.328386 9.386988 0.991005 0.000001 0.000007 0.000000 0.000000 0.000000 11.064796 -4.386284 0.300218 4.914702 0.039532 -1.345869 1.280397 -0.581399 -0.243914 0.000000 0.000000 0.000000 0.000000 0.000000 0.000000 -1.235870 -0.968076 0.803033 12.017591 -0.320258 2.501738 -27.789528 0.599162 -5.297347 0.000000 0.000000 0.000000 -1.235870 -0.968076 0.803033 5.878255 -7.672478 20.103035 0.000000 0.000000 0.000000 -33.468747 -17.978111 -16.110610 -179.999991 -55.968107 -179.999991 0.000000 0.000000 0.000000 -1.235870 -0.968076 0.803033 -1.619841 -8.648573 -15.036402 0.000000 0.000000 0.000000 -28.202450 36.406865 26.123052 179.999978 59.564550 -179.999978 0.000000 0.000000 0.000000 
-1.392453 114.278259 56.115654 0.000000 0.000000 0.000000 11.039107 -4.084661 0.361386 -23.869826 7.814284 14.443748 20.661753 8.240598 0.260739 -6.929714 -4.390157 -13.185331 -0.109850 0.000007 0.000004 0.000000 0.000000 0.000000 11.039107 -4.084661 0.361386 -27.744879 -3.302418 -5.213352 23.121189 -0.040374 -4.136821 -5.177122 -11.213948 9.340481 0.970963 0.000010 -0.000000 0.000000 0.000000 0.000000 11.039107 -4.084661 0.361386 4.835941 0.023054 -1.340930 1.041128 -0.598517 -0.274372 0.000000 0.000000 0.000000 0.000000 0.000000 0.000000 -1.744790 -0.975784 0.764702 11.863104 -0.362429 2.602117 -26.302196 0.317049 -5.304088 0.000000 0.000000 0.000000 -1.744790 -0.975784 0.764702 5.849444 -6.585278 19.920832 0.000000 0.000000 0.000000 -32.533523 -20.318829 -16.382501 -179.999991 -56.159601 -179.999991 0.000000 0.000000 0.000000 -1.744790 -0.975784 0.764702 -1.670312 -8.903714 -15.179148 0.000000 0.000000 0.000000 -28.256421 36.425153 26.965476 179.999978 60.098739 -179.999978 0.000000 0.000000 0.000000 
-1.479026 115.182503 56.201942 0.000000 0.000000 0.000000 10.866005 -3.866768 0.410702 -22.243315 8.260132 14.107056 17.917205 8.238001 0.235967 -5.721208 -4.663418 -12.957465 -0.109844 0.000002 -0.000001 0.000000 0.000000 0.000000 10.866005 -3.866768 0.410702 -26.140322 -3.448500 -5.214545 20.716947 -0.218766 -4.087718 -4.218317 -11.127929 9.279463 0.950921 -0.000013 0.000001 0.000000 0.000000 0.000000 10.866005 -3.866768 0.410702 4.828799 0.007925 -1.323418 0.927518 -0.624166 -0.296081 0.000000 0.000000 0.000000 0.000000 0.000000 0.000000 -2.104699 -0.992649 0.733137 11.862737 -0.399618 2.654986 -24.817665 0.051179 -5.258242 0.000000 0.000000 0.000000 -2.104699 -0.992649 0.733137 5.806719 -4.919175 19.528573 0.000000 0.000000 0.000000 -30.961872 -23.198189 -16.689330 179.999978 -55.554611 179.999978 0.000000 0.000000 0.000000 -2.104699 -0.992649 0.733137 -1.715439 -9.041384 -15.338110 0.000000 0.000000 0.000000 -28.143762 35.816392 28.399040 179.999978 59.530727 -179.999978 0.000000 0.000000 0.000000 
